<?xml version="1.0" encoding="utf-8"?>
<!-- Generator: Adobe Illustrator 16.0.0, SVG Export Plug-In . SVG Version: 6.00 Build 0)  -->
<!DOCTYPE svg PUBLIC "-//W3C//DTD SVG 1.1//EN" "http://www.w3.org/Graphics/SVG/1.1/DTD/svg11.dtd">
<svg version="1.1" id="Layer_1" xmlns="http://www.w3.org/2000/svg" xmlns:xlink="http://www.w3.org/1999/xlink" x="0px" y="0px"
	 width="612px" height="792px" viewBox="0 0 612 792" enable-background="new 0 0 612 792" xml:space="preserve">
<g>
	<path fill="#735622" d="M225.101,345.097V392.2c0,4.9-7.101,4.9-7.101,0v-62.804c0-3.5,5.5-4.8,6.7-1.4l23.802,49.003v-47.603
		c0-4.4,7.5-4.4,7.5,0V392.2c0,4.7-5.601,4.9-7,1.9L225.101,345.097z"/>
	<path fill="#735622" d="M266,349.597c0-4.6,7-4.7,7,0v32.202c0,3.9,3.3,7.2,7.2,7.2c4,0,7.301-3.3,7.301-7.2v-32.302
		c0-4.7,7-4.7,7,0v32.302c0,7.8-6.4,14.201-14.301,14.201c-7.8,0-14.201-6.4-14.201-14.201V349.597z"/>
	<path fill="#735622" d="M331.301,362.598l-8.4,14.301c-1.301,2.3-4.7,2.3-6,0l-8.4-14.301V392.5c0,4.7-7.001,4.7-7.001,0v-42.803
		c0-3.6,4.7-4.9,6.501-1.8l11.9,20.301l11.9-20.301c1.801-3.1,6.5-1.8,6.5,1.8V392.5c0,4.7-7,4.7-7,0V362.598z"/>
	<path fill="#735622" d="M350.298,396c-1.899,0-3.5-1.6-3.5-3.5v-42.803c0-1.9,1.601-3.5,3.5-3.5h9.501
		c7.801,0,14.201,5.9,14.201,13.701c0,3.8-1.501,7.2-4.301,9.601c2.3,1.9,5.601,6,5.601,11.9c0,9.901-7.001,14.601-15.501,14.601
		H350.298z M353.798,353.197v12.901c6.001,0,6.001,0,6.001,0c3.6,0,7.2-2,7.2-6.2c0-3.9-3-6.701-7.2-6.701H353.798z M359.799,389
		c7.601,0,8.5-4.3,8.5-7.601c0-4.8-3.7-8.3-8.5-8.3h-6.001V389H359.799z"/>
	<path fill="#735622" d="M381.797,360.398c0-7.801,6.4-14.201,14.201-14.201c7.9,0,14.301,6.4,14.301,14.201v21.401
		c0,7.8-6.4,14.201-14.301,14.201c-7.801,0-14.201-6.4-14.201-14.201V360.398z M388.797,381.799c0,3.9,3.301,7.2,7.201,7.2
		c4,0,7.3-3.3,7.3-7.2v-21.401c0-3.9-3.3-7.201-7.3-7.201c-3.9,0-7.201,3.3-7.201,7.201V381.799z"/>
</g>
<g>
</g>
<g>
</g>
<g>
</g>
<g>
</g>
<g>
</g>
<g>
</g>
</svg>
